<svg xmlns="http://www.w3.org/2000/svg" xmlns:xlink="http://www.w3.org/1999/xlink" data-name="Layer 1" preserveAspectRatio="xMidYMid meet" version="1.0" viewBox="6.4 -4.9 149.4 157.6" zoomAndPan="magnify" style="fill: rgb(0, 0, 0);" original_string_length="914"><g id="__id408_shugo9rr7"><circle cx="81.41" cy="75.29" r="66.5" style="fill: rgb(10, 115, 176);"/></g><path d="M90.27 47.27L71.1 47.27 71.1 66.43 52.48 66.43 52.48 85.16 71.1 85.16 71.1 104.33 90.27 104.33 90.27 85.16 108.89 85.16 108.89 66.43 90.27 66.43 90.27 47.27z" style="fill: none;"/><g id="__id409_shugo9rr7"><path d="M137.41,27.67A74,74,0,0,0,52.69,7.5,75.11,75.11,0,0,0,20.2,33.78,78,78,0,0,0,15.73,41,75.84,75.84,0,0,0,6.6,75.09c0,.73-.06,1.46-.06,2.2a75.35,75.35,0,0,0,57.53,73.49,74.26,74.26,0,0,0,17.11,2c41.22,0,74.64-33.8,74.64-75.5A75.66,75.66,0,0,0,137.41,27.67ZM108.89,85.16H90.27v19.17H71.1V85.16H52.48V66.43H71.1V47.26H90.27V66.43h18.62Z" style="fill: rgb(255, 255, 255);"/></g></svg>