<svg xmlns="http://www.w3.org/2000/svg" xmlns:xlink="http://www.w3.org/1999/xlink" viewBox="0,0,256,256" width="48px" height="48px" fill-rule="nonzero"><g fill="none" fill-rule="nonzero" stroke="none" stroke-width="1" stroke-linecap="butt" stroke-linejoin="miter" stroke-miterlimit="10" stroke-dasharray="" stroke-dashoffset="0" font-family="none" font-weight="none" font-size="none" text-anchor="none" style="mix-blend-mode: normal"><g transform="scale(5.33333,5.33333)"><path d="M39,29h-30c-1.657,0 -3,-1.343 -3,-3v-3h36v3c0,1.657 -1.343,3 -3,3z" fill="#06316b"></path><path d="M39,27h-30c-1.105,0 -2,-0.895 -2,-2v-3h34v3c0,1.105 -0.895,2 -2,2z" fill="#ffffff"></path><path d="M39,28h-30c-1.654,0 -3,-1.346 -3,-3v-3c0,-0.553 0.448,-1 1,-1h34c0.552,0 1,0.447 1,1v3c0,1.654 -1.346,3 -3,3zM8,23v2c0,0.552 0.449,1 1,1h30c0.551,0 1,-0.448 1,-1v-2z" fill="#06316b"></path><path d="M39,17h-30c-1.657,0 -3,-1.343 -3,-3v-3h36v3c0,1.657 -1.343,3 -3,3z" fill="#06316b"></path><path d="M39,15h-30c-1.105,0 -2,-0.895 -2,-2v-3h34v3c0,1.105 -0.895,2 -2,2z" fill="#ffffff"></path><path d="M39,16h-30c-1.654,0 -3,-1.346 -3,-3v-3c0,-0.553 0.448,-1 1,-1h34c0.552,0 1,0.447 1,1v3c0,1.654 -1.346,3 -3,3zM8,11v2c0,0.552 0.449,1 1,1h30c0.551,0 1,-0.448 1,-1v-2z" fill="#06316b"></path><path d="M39,41h-30c-1.657,0 -3,-1.343 -3,-3v-3h36v3c0,1.657 -1.343,3 -3,3z" fill="#06316b"></path><path d="M39,39h-30c-1.105,0 -2,-0.895 -2,-2v-3h34v3c0,1.105 -0.895,2 -2,2z" fill="#ffffff"></path><path d="M39,40h-30c-1.654,0 -3,-1.346 -3,-3v-3c0,-0.553 0.448,-1 1,-1h34c0.552,0 1,0.447 1,1v3c0,1.654 -1.346,3 -3,3zM8,35v2c0,0.552 0.449,1 1,1h30c0.551,0 1,-0.448 1,-1v-2z" fill="#06316b"></path></g></g></svg>